<svg version="1.1" xmlns="http://www.w3.org/2000/svg" viewBox="0 0 279.30587590734285 279.30587590734285" width="837.9176277220286" height="837.9176277220286">
  <!-- svg-source:excalidraw -->
  
  <defs>
    <style class="style-fonts">
      @font-face {
        font-family: "Virgil";
        src: url("https://excalidraw.com/Virgil.woff2");
      }
      @font-face {
        font-family: "Cascadia";
        src: url("https://excalidraw.com/Cascadia.woff2");
      }
    </style>
  </defs>
  <g stroke-linecap="round" transform="translate(10 10) rotate(0 129.65293795367143 129.65293795367143)"><path d="M259.31 129.65 C259.31 133.22, 259.16 136.8, 258.86 140.36 C258.57 143.92, 258.12 147.47, 257.54 150.99 C256.95 154.51, 256.21 158.02, 255.34 161.48 C254.46 164.94, 253.44 168.38, 252.28 171.75 C251.12 175.13, 249.82 178.47, 248.39 181.73 C246.95 185, 245.38 188.22, 243.68 191.36 C241.98 194.5, 240.15 197.58, 238.19 200.57 C236.24 203.55, 234.16 206.47, 231.97 209.29 C229.78 212.1, 227.46 214.84, 225.04 217.46 C222.62 220.09, 220.09 222.62, 217.46 225.04 C214.84 227.46, 212.1 229.78, 209.29 231.97 C206.47 234.16, 203.55 236.24, 200.57 238.19 C197.58 240.15, 194.5 241.98, 191.36 243.68 C188.22 245.38, 185 246.95, 181.73 248.39 C178.47 249.82, 175.13 251.12, 171.75 252.28 C168.38 253.44, 164.94 254.46, 161.48 255.34 C158.02 256.21, 154.51 256.95, 150.99 257.54 C147.47 258.12, 143.92 258.57, 140.36 258.86 C136.8 259.16, 133.22 259.31, 129.65 259.31 C126.08 259.31, 122.5 259.16, 118.95 258.86 C115.39 258.57, 111.83 258.12, 108.31 257.54 C104.79 256.95, 101.28 256.21, 97.83 255.34 C94.37 254.46, 90.93 253.44, 87.55 252.28 C84.18 251.12, 80.84 249.82, 77.57 248.39 C74.3 246.95, 71.08 245.38, 67.94 243.68 C64.81 241.98, 61.73 240.15, 58.74 238.19 C55.75 236.24, 52.83 234.16, 50.02 231.97 C47.2 229.78, 44.47 227.46, 41.84 225.04 C39.22 222.62, 36.68 220.09, 34.26 217.46 C31.85 214.84, 29.53 212.1, 27.34 209.29 C25.15 206.47, 23.06 203.55, 21.11 200.57 C19.16 197.58, 17.33 194.5, 15.63 191.36 C13.93 188.22, 12.35 185, 10.92 181.73 C9.49 178.47, 8.18 175.13, 7.02 171.75 C5.87 168.38, 4.84 164.94, 3.97 161.48 C3.09 158.02, 2.36 154.51, 1.77 150.99 C1.18 147.47, 0.74 143.92, 0.44 140.36 C0.15 136.8, 0 133.22, 0 129.65 C0 126.08, 0.15 122.5, 0.44 118.95 C0.74 115.39, 1.18 111.83, 1.77 108.31 C2.36 104.79, 3.09 101.28, 3.97 97.83 C4.84 94.37, 5.87 90.93, 7.02 87.55 C8.18 84.18, 9.49 80.84, 10.92 77.57 C12.35 74.3, 13.93 71.08, 15.63 67.94 C17.33 64.81, 19.16 61.73, 21.11 58.74 C23.06 55.75, 25.15 52.83, 27.34 50.02 C29.53 47.2, 31.85 44.47, 34.26 41.84 C36.68 39.22, 39.22 36.68, 41.84 34.26 C44.47 31.85, 47.2 29.53, 50.02 27.34 C52.83 25.15, 55.75 23.06, 58.74 21.11 C61.73 19.16, 64.81 17.33, 67.94 15.63 C71.08 13.93, 74.3 12.35, 77.57 10.92 C80.84 9.49, 84.18 8.18, 87.55 7.02 C90.93 5.87, 94.37 4.84, 97.83 3.97 C101.28 3.09, 104.79 2.36, 108.31 1.77 C111.83 1.18, 115.39 0.74, 118.95 0.44 C122.5 0.15, 126.08 0, 129.65 0 C133.22 0, 136.8 0.15, 140.36 0.44 C143.92 0.74, 147.47 1.18, 150.99 1.77 C154.51 2.36, 158.02 3.09, 161.48 3.97 C164.94 4.84, 168.38 5.87, 171.75 7.02 C175.13 8.18, 178.47 9.49, 181.73 10.92 C185 12.35, 188.22 13.93, 191.36 15.63 C194.5 17.33, 197.58 19.16, 200.57 21.11 C203.55 23.06, 206.47 25.15, 209.29 27.34 C212.1 29.53, 214.84 31.85, 217.46 34.26 C220.09 36.68, 222.62 39.22, 225.04 41.84 C227.46 44.47, 229.78 47.2, 231.97 50.02 C234.16 52.83, 236.24 55.75, 238.19 58.74 C240.15 61.73, 241.98 64.81, 243.68 67.94 C245.38 71.08, 246.95 74.3, 248.39 77.57 C249.82 80.84, 251.12 84.18, 252.28 87.55 C253.44 90.93, 254.46 94.37, 255.34 97.83 C256.21 101.28, 256.95 104.79, 257.54 108.31 C258.12 111.83, 258.57 115.39, 258.86 118.95 C259.16 122.5, 259.31 126.08, 259.31 129.65" stroke="none" stroke-width="0" fill="#6741d9"></path><path d="M259.31 129.65 C259.31 133.22, 259.16 136.8, 258.86 140.36 C258.57 143.92, 258.12 147.47, 257.54 150.99 C256.95 154.51, 256.21 158.02, 255.34 161.48 C254.46 164.94, 253.44 168.38, 252.28 171.75 C251.12 175.13, 249.82 178.47, 248.39 181.73 C246.95 185, 245.38 188.22, 243.68 191.36 C241.98 194.5, 240.15 197.58, 238.19 200.57 C236.24 203.55, 234.16 206.47, 231.97 209.29 C229.78 212.1, 227.46 214.84, 225.04 217.46 C222.62 220.09, 220.09 222.62, 217.46 225.04 C214.84 227.46, 212.1 229.78, 209.29 231.97 C206.47 234.16, 203.55 236.24, 200.57 238.19 C197.58 240.15, 194.5 241.98, 191.36 243.68 C188.22 245.38, 185 246.95, 181.73 248.39 C178.47 249.82, 175.13 251.12, 171.75 252.28 C168.38 253.44, 164.94 254.46, 161.48 255.34 C158.02 256.21, 154.51 256.95, 150.99 257.54 C147.47 258.12, 143.92 258.57, 140.36 258.86 C136.8 259.16, 133.22 259.31, 129.65 259.31 C126.08 259.31, 122.5 259.16, 118.95 258.86 C115.39 258.57, 111.83 258.12, 108.31 257.54 C104.79 256.95, 101.28 256.21, 97.83 255.34 C94.37 254.46, 90.93 253.44, 87.55 252.28 C84.18 251.12, 80.84 249.82, 77.57 248.39 C74.3 246.95, 71.08 245.38, 67.94 243.68 C64.81 241.98, 61.73 240.15, 58.74 238.19 C55.75 236.24, 52.83 234.16, 50.02 231.97 C47.2 229.78, 44.47 227.46, 41.84 225.04 C39.22 222.62, 36.68 220.09, 34.26 217.46 C31.85 214.84, 29.53 212.1, 27.34 209.29 C25.15 206.47, 23.06 203.55, 21.11 200.57 C19.16 197.58, 17.33 194.5, 15.63 191.36 C13.93 188.22, 12.35 185, 10.92 181.73 C9.49 178.47, 8.18 175.13, 7.02 171.75 C5.87 168.38, 4.84 164.94, 3.97 161.48 C3.09 158.02, 2.36 154.51, 1.77 150.99 C1.18 147.47, 0.74 143.92, 0.44 140.36 C0.15 136.8, 0 133.22, 0 129.65 C0 126.08, 0.15 122.5, 0.44 118.95 C0.74 115.39, 1.18 111.83, 1.77 108.31 C2.36 104.79, 3.09 101.28, 3.97 97.83 C4.84 94.37, 5.87 90.93, 7.02 87.55 C8.18 84.18, 9.49 80.84, 10.92 77.57 C12.35 74.3, 13.93 71.08, 15.63 67.94 C17.33 64.81, 19.16 61.73, 21.11 58.74 C23.06 55.75, 25.15 52.83, 27.34 50.02 C29.53 47.2, 31.85 44.47, 34.26 41.84 C36.68 39.22, 39.22 36.68, 41.84 34.26 C44.47 31.85, 47.2 29.53, 50.02 27.34 C52.83 25.15, 55.75 23.06, 58.74 21.11 C61.73 19.16, 64.81 17.33, 67.94 15.63 C71.08 13.93, 74.3 12.35, 77.57 10.92 C80.84 9.49, 84.18 8.18, 87.55 7.02 C90.93 5.87, 94.37 4.84, 97.83 3.97 C101.28 3.09, 104.79 2.36, 108.31 1.77 C111.83 1.18, 115.39 0.74, 118.95 0.44 C122.5 0.15, 126.08 0, 129.65 0 C133.22 0, 136.8 0.15, 140.36 0.44 C143.92 0.74, 147.47 1.18, 150.99 1.77 C154.51 2.36, 158.02 3.09, 161.48 3.97 C164.94 4.84, 168.38 5.87, 171.75 7.02 C175.13 8.18, 178.47 9.49, 181.73 10.92 C185 12.35, 188.22 13.93, 191.36 15.63 C194.5 17.33, 197.58 19.16, 200.57 21.11 C203.55 23.06, 206.47 25.15, 209.29 27.34 C212.1 29.53, 214.84 31.85, 217.46 34.26 C220.09 36.68, 222.62 39.22, 225.04 41.84 C227.46 44.47, 229.78 47.2, 231.97 50.02 C234.16 52.83, 236.24 55.75, 238.19 58.74 C240.15 61.73, 241.98 64.81, 243.68 67.94 C245.38 71.08, 246.95 74.3, 248.39 77.57 C249.82 80.84, 251.12 84.18, 252.28 87.55 C253.44 90.93, 254.46 94.37, 255.34 97.83 C256.21 101.28, 256.95 104.79, 257.54 108.31 C258.12 111.83, 258.57 115.39, 258.86 118.95 C259.16 122.5, 259.31 126.08, 259.31 129.65" stroke="#6741d9" stroke-width="4" fill="none"></path></g><g stroke-linecap="round" transform="translate(71.71219277636646 97.07536859542233) rotate(0 12.630660521671416 53.37475454694322)"><path d="M0 0 L25.26 0 L25.26 106.75 L0 106.75" stroke="none" stroke-width="0" fill="#ffffff"></path><path d="M0 0 C6.14 0, 12.28 0, 25.26 0 M0 0 C5.21 0, 10.43 0, 25.26 0 M25.26 0 C25.26 30.66, 25.26 61.32, 25.26 106.75 M25.26 0 C25.26 24.16, 25.26 48.33, 25.26 106.75 M25.26 106.75 C17.48 106.75, 9.7 106.75, 0 106.75 M25.26 106.75 C17.9 106.75, 10.54 106.75, 0 106.75 M0 106.75 C0 79.29, 0 51.83, 0 0 M0 106.75 C0 68.87, 0 30.98, 0 0" stroke="transparent" stroke-width="4" fill="none"></path></g><g stroke-linecap="round" transform="translate(106.9557869751834 75.4809982180359) rotate(0 14.05671286614097 64.17193973563553)"><path d="M0 0 L28.11 0 L28.11 128.34 L0 128.34" stroke="none" stroke-width="0" fill="#ffffff"></path><path d="M0 0 C9.99 0, 19.97 0, 28.11 0 M0 0 C6.44 0, 12.87 0, 28.11 0 M28.11 0 C28.11 44.61, 28.11 89.22, 28.11 128.34 M28.11 0 C28.11 29.41, 28.11 58.82, 28.11 128.34 M28.11 128.34 C18.67 128.34, 9.23 128.34, 0 128.34 M28.11 128.34 C22.36 128.34, 16.61 128.34, 0 128.34 M0 128.34 C0 81.44, 0 34.53, 0 0 M0 128.34 C0 100.86, 0 73.38, 0 0" stroke="transparent" stroke-width="4" fill="none"></path></g><g stroke-linecap="round" transform="translate(146.07013464719603 101.14976944949922) rotate(0 12.630660521671416 51.33755411990387)"><path d="M0 0 L25.26 0 L25.26 102.68 L0 102.68" stroke="none" stroke-width="0" fill="#ffffff"></path><path d="M0 0 C9.93 0, 19.86 0, 25.26 0 M0 0 C6.3 0, 12.6 0, 25.26 0 M25.26 0 C25.26 30.87, 25.26 61.75, 25.26 102.68 M25.26 0 C25.26 32.04, 25.26 64.09, 25.26 102.68 M25.26 102.68 C16.31 102.68, 7.35 102.68, 0 102.68 M25.26 102.68 C18.98 102.68, 12.69 102.68, 0 102.68 M0 102.68 C0 71.36, 0 40.04, 0 0 M0 102.68 C0 66.01, 0 29.35, 0 0" stroke="transparent" stroke-width="4" fill="none"></path></g><g stroke-linecap="round" transform="translate(182.332362087634 121.52181257647499) rotate(0 12.630660521671416 41.15153255641599)"><path d="M0 0 L25.26 0 L25.26 82.3 L0 82.3" stroke="none" stroke-width="0" fill="#ffffff"></path><path d="M0 0 C9.34 0, 18.69 0, 25.26 0 M0 0 C8.59 0, 17.19 0, 25.26 0 M25.26 0 C25.26 26.16, 25.26 52.32, 25.26 82.3 M25.26 0 C25.26 32.42, 25.26 64.83, 25.26 82.3 M25.26 82.3 C19.4 82.3, 13.53 82.3, 0 82.3 M25.26 82.3 C20.05 82.3, 14.83 82.3, 0 82.3 M0 82.3 C0 52.1, 0 21.9, 0 0 M0 82.3 C0 60.93, 0 39.55, 0 0" stroke="transparent" stroke-width="4" fill="none"></path></g></svg>